<?xml version="1.0" encoding="UTF-8" standalone="no"?> <svg width="64" height="64" viewBox="0 0 64 64" fill="none" xmlns="http://www.w3.org/2000/svg">
<path d="M12 61C16.9706 61 21 56.9706 21 52C21 47.0294 16.9706 43 12 43C7.02944 43 3 47.0294 3 52C3 56.9706 7.02944 61 12 61Z" fill="#57565C"/>
<path d="M22.91 43.92L21.82 45.01L19.62 47.21L14.99 51.84C14.9552 51.1006 14.6459 50.4008 14.1225 49.8775C13.5991 49.3541 12.8993 49.0448 12.16 49.01L18.73 42.44L19.82 41.35L22.91 43.92Z" fill="#E0E0E2"/>
<path d="M12 55C13.6569 55 15 53.6569 15 52C15 50.3431 13.6569 49 12 49C10.3431 49 9 50.3431 9 52C9 53.6569 10.3431 55 12 55Z" fill="#ACABB1"/>
<path d="M22.91 43.92L21.82 45.01L20.6 44L19.82 43.35L18.73 42.44L19.82 41.35L22.91 43.92Z" fill="#D8D7DA"/>
<path d="M35 40V49H26.57C26.396 49.0022 26.2246 48.958 26.0734 48.8718C25.9222 48.7857 25.7968 48.6608 25.71 48.51L23 44L22.91 43.92L20.6 42L19.82 41.35L18.2 40H35Z" fill="#FF9811"/>
<path d="M44.72 43.37L43.54 44.33L39 48H35V39H42.19L42.27 39.14L43.35 41L44.72 43.37Z" fill="#FF9811"/>
<path d="M24.27 42H20.6L19.82 41.35L18.2 40H24.08C24.0277 40.3308 24.001 40.6651 24 41C24.0006 41.3513 24.0937 41.6962 24.27 42Z" fill="#EE8700"/>
<path d="M24 39C24.0006 39.3513 24.0937 39.6962 24.27 40H13V36H24.81C24.2748 36.9088 23.995 37.9453 24 39Z" fill="#57565C"/>
<path d="M43.35 41H35V39H42.19L42.27 39.14L43.35 41Z" fill="#EE8700"/>
<path d="M49 31V37C48.9984 37.5299 48.7872 38.0377 48.4125 38.4125C48.0377 38.7872 47.5299 38.9984 47 39L46.91 39.05L46.88 39H35V30C35 29.7348 35.1054 29.4804 35.2929 29.2929C35.4804 29.1054 35.7348 29 36 29H47C47.5299 29.0016 48.0377 29.2128 48.4125 29.5875C48.7872 29.9623 48.9984 30.4701 49 31Z" fill="#FF9811"/>
<path d="M52 61C56.9706 61 61 56.9706 61 52C61 47.0294 56.9706 43 52 43C47.0294 43 43 47.0294 43 52C43 56.9706 47.0294 61 52 61Z" fill="#57565C"/>
<path d="M29 49V47.53C28.9999 47.3673 29.0389 47.207 29.1138 47.0626C29.1886 46.9181 29.2971 46.7938 29.43 46.7L31.64 45.18C31.8069 45.0626 32.006 44.9997 32.21 45H38C38.2652 45 38.5196 45.1054 38.7071 45.2929C38.8946 45.4804 39 45.7348 39 46V52C39 52.2652 38.8946 52.5196 38.7071 52.7071C38.5196 52.8946 38.2652 53 38 53H32.3C32.1039 52.999 31.9125 52.9398 31.75 52.83L29.45 51.3C29.3118 51.2076 29.1985 51.0827 29.1201 50.9362C29.0416 50.7897 29.0004 50.6262 29 50.46V49Z" fill="#898890"/>
<path d="M54 37.87C54.0002 38.0228 53.9655 38.1736 53.8984 38.3108C53.8314 38.4481 53.7337 38.5681 53.613 38.6618C53.4924 38.7554 53.3518 38.8202 53.2022 38.8511C53.0526 38.882 52.8979 38.8782 52.75 38.84C51.6778 38.562 50.7282 37.9359 50.0504 37.0599C49.3725 36.1839 49.0047 35.1076 49.0047 34C49.0047 32.8924 49.3725 31.8161 50.0504 30.9401C50.7282 30.0641 51.6778 29.438 52.75 29.16C52.8979 29.1218 53.0526 29.118 53.2022 29.1489C53.3518 29.1798 53.4924 29.2445 53.613 29.3382C53.7337 29.4319 53.8314 29.5519 53.8984 29.6892C53.9655 29.8264 54.0002 29.9772 54 30.13V37.87Z" fill="#FF9811"/>
<path d="M54 36V32H55C55.5304 32 56.0391 32.2107 56.4142 32.5858C56.7893 32.9609 57 33.4696 57 34C57 34.5304 56.7893 35.0391 56.4142 35.4142C56.0391 35.7893 55.5304 36 55 36H54Z" fill="#FFA733"/>
<path d="M44.72 43.37L43.54 44.33L40.47 39H42.19L42.27 39.14L43.35 41L44.72 43.37Z" fill="#EE8700"/>
<path d="M52.71 49.09C52.4781 49.0299 52.2395 48.9997 52 49C51.3695 48.9986 50.7549 49.1973 50.2446 49.5675C49.7342 49.9377 49.3545 50.4602 49.16 51.06L36.87 29.77L36.5 29.1399L36.42 29L35.84 28H37C37.5371 28.0015 38.0648 27.8583 38.5275 27.5856C38.9903 27.3129 39.3711 26.9206 39.63 26.45L40.17 27.3799L40.7 28.29L52.71 49.09Z" fill="#E0E0E2"/>
<path d="M37 37V42C37 42.2652 36.8946 42.5196 36.7071 42.7071C36.5195 42.8946 36.2652 43 36 43H25C24.7374 43.0014 24.4772 42.9499 24.2349 42.8485C23.9927 42.7471 23.7733 42.598 23.59 42.41C23.4642 42.2894 23.3564 42.1513 23.27 42C23.0937 41.6962 23.0006 41.3513 23 41C22.9949 39.9453 23.2748 38.9088 23.81 38C24.3349 37.0878 25.0911 36.3301 26.0023 35.8034C26.9135 35.2767 27.9475 34.9996 29 35H35C35.5299 35.0016 36.0377 35.2128 36.4124 35.5875C36.7872 35.9623 36.9984 36.4701 37 37V37Z" fill="#EE8700"/>
<path d="M39 35V39H35V33H37C37.5299 33.0016 38.0377 33.2128 38.4125 33.5875C38.7872 33.9623 38.9984 34.4701 39 35Z" fill="#EE8700"/>
<path d="M37 35V40C37 40.2652 36.8946 40.5196 36.7071 40.7071C36.5195 40.8946 36.2652 41 36 41H25C24.7374 41.0014 24.4772 40.9499 24.2349 40.8485C23.9927 40.7471 23.7733 40.598 23.59 40.41C23.4642 40.2894 23.3564 40.1513 23.27 40C23.0937 39.6962 23.0006 39.3513 23 39C22.9949 37.9453 23.2748 36.9088 23.81 36C24.3349 35.0878 25.0911 34.3301 26.0023 33.8034C26.9135 33.2767 27.9475 32.9996 29 33H35C35.5299 33.0016 36.0377 33.2128 36.4124 33.5875C36.7872 33.9623 36.9984 34.4701 37 35V35Z" fill="#FF9811"/>
<path d="M13 36V40H7.53999C7.37381 39.9996 7.21026 39.9584 7.06377 39.8799C6.91729 39.8014 6.79235 39.6881 6.69999 39.55L4.03999 35.55C3.9388 35.4 3.88045 35.2253 3.87123 35.0446C3.862 34.8639 3.90226 34.6842 3.98766 34.5247C4.07306 34.3652 4.20036 34.2321 4.35584 34.1396C4.51132 34.0471 4.68909 33.9989 4.86999 34H12C12.2652 34 12.5196 34.1053 12.7071 34.2928C12.8946 34.4804 13 34.7347 13 35V36Z" fill="#FF9811"/>
<path d="M34.18 24H31C30.4701 24.0016 29.9623 24.2128 29.5875 24.5875C29.2128 24.9623 29.0016 25.4701 29 26C29.0039 26.5292 29.2159 27.0357 29.5901 27.4099C29.9643 27.7841 30.4708 27.9961 31 28H37V24H34.18Z" fill="#C6C5CA"/>
<path d="M45 25.9999V28.9999H41.11L40.17 27.3799L41.59 25.4099C41.6831 25.2825 41.805 25.179 41.9458 25.1077C42.0866 25.0365 42.2422 24.9995 42.4 24.9999H44C44.2652 24.9999 44.5196 25.1053 44.7071 25.2928C44.8946 25.4804 45 25.7347 45 25.9999Z" fill="#EE8700"/>
<path d="M40.7 28.29C40.6809 28.345 40.6575 28.3985 40.63 28.45C40.3711 28.9206 39.9903 29.3129 39.5275 29.5856C39.0648 29.8583 38.5371 30.0015 38 30C37.6116 30.001 37.2271 29.9227 36.87 29.77L35.84 28H37C37.5371 28.0015 38.0648 27.8583 38.5275 27.5856C38.9903 27.3129 39.3711 26.9206 39.63 26.45L40.7 28.29Z" fill="#D8D7DA"/>
<path d="M40 25C39.9986 25.5065 39.8714 26.0047 39.63 26.45C39.3093 27.0343 38.8032 27.4952 38.1914 27.76C37.5797 28.0247 36.8972 28.0781 36.2518 27.9119C35.6063 27.7457 35.0345 27.3692 34.6268 26.8419C34.219 26.3146 33.9985 25.6665 34 25C33.9979 24.6584 34.0589 24.3194 34.18 24C34.42 23.3386 34.8848 22.7826 35.4931 22.4292C36.1015 22.0758 36.8147 21.9474 37.5081 22.0666C38.2015 22.1857 38.831 22.5448 39.2865 23.081C39.742 23.6172 39.9945 24.2964 40 25Z" fill="#898890"/>
<path d="M17 31C24.732 31 31 24.732 31 17C31 9.26801 24.732 3 17 3C9.26801 3 3 9.26801 3 17C3 24.732 9.26801 31 17 31Z" fill="#FF6243"/>
<path d="M52 55C53.6569 55 55 53.6569 55 52C55 50.3431 53.6569 49 52 49C50.3431 49 49 50.3431 49 52C49 53.6569 50.3431 55 52 55Z" fill="#ACABB1"/>
<path d="M24.79 19.55C24.6526 20.0569 24.451 20.5442 24.19 21L25.36 22.95L23.95 24.36L22 23.19C21.5442 23.451 21.0569 23.6526 20.55 23.79L20 26H18L17.45 23.79C16.9431 23.6526 16.4558 23.451 16 23.19L14.05 24.36L12.64 22.95L13.81 21C13.549 20.5442 13.3474 20.0569 13.21 19.55L11 19V17L13.21 16.45C13.3474 15.9431 13.549 15.4558 13.81 15L12.64 13.05L14.05 11.64L16 12.81C16.4558 12.549 16.9431 12.3474 17.45 12.21L18 10H20L20.55 12.21C21.0569 12.3474 21.5442 12.549 22 12.81L23.95 11.64L25.36 13.05L24.19 15C24.451 15.4558 24.6526 15.9431 24.79 16.45L27 17V19L24.79 19.55Z" fill="#ED4A21"/>
<path d="M22.79 18.55C22.6526 19.0569 22.451 19.5442 22.19 20L23.36 21.95L21.95 23.36L20 22.19C19.5442 22.451 19.0569 22.6526 18.55 22.79L18 25H16L15.45 22.79C14.9431 22.6526 14.4558 22.451 14 22.19L12.05 23.36L10.64 21.95L11.81 20C11.549 19.5442 11.3474 19.0569 11.21 18.55L9 18V16L11.21 15.45C11.3474 14.9431 11.549 14.4558 11.81 14L10.64 12.05L12.05 10.64L14 11.81C14.4558 11.549 14.9431 11.3474 15.45 11.21L16 9H18L18.55 11.21C19.0569 11.3474 19.5442 11.549 20 11.81L21.95 10.64L23.36 12.05L22.19 14C22.451 14.4558 22.6526 14.9431 22.79 15.45L25 16V18L22.79 18.55Z" fill="#FF9811"/>
<path d="M17 20C18.6569 20 20 18.6569 20 17C20 15.3431 18.6569 14 17 14C15.3431 14 14 15.3431 14 17C14 18.6569 15.3431 20 17 20Z" fill="#EE8700"/>
<path d="M25.243 15.03L23.575 14.612C23.5043 14.4167 23.425 14.2253 23.337 14.038L24.221 12.564C24.3356 12.3729 24.3831 12.1489 24.356 11.9277C24.3288 11.7065 24.2285 11.5007 24.071 11.343L22.657 9.929C22.4994 9.77111 22.2934 9.67048 22.072 9.64312C21.8506 9.61576 21.6263 9.66324 21.435 9.778L19.962 10.662C19.774 10.575 19.583 10.496 19.387 10.425L18.97 8.758C18.916 8.54157 18.7912 8.3494 18.6155 8.21205C18.4397 8.0747 18.2231 8.00006 18 8H16C15.7769 8.00006 15.5603 8.0747 15.3845 8.21205C15.2088 8.3494 15.084 8.54157 15.03 8.758L14.613 10.425C14.413 10.496 14.226 10.575 14.038 10.662L12.565 9.778C12.3737 9.66324 12.1494 9.61576 11.928 9.64312C11.7066 9.67048 11.5006 9.77111 11.343 9.929L9.929 11.343C9.77151 11.5007 9.67121 11.7065 9.64404 11.9277C9.61686 12.1489 9.66436 12.3729 9.779 12.564L10.663 14.038C10.575 14.226 10.4957 14.4173 10.425 14.612L8.757 15.03C8.54075 15.0842 8.34881 15.209 8.21166 15.3848C8.0745 15.5605 8.00001 15.7771 8 16V18C8.00001 18.2229 8.0745 18.4395 8.21166 18.6152C8.34881 18.791 8.54075 18.9158 8.757 18.97L10.425 19.388C10.496 19.582 10.575 19.774 10.663 19.962L9.779 21.435C9.66436 21.6261 9.61686 21.8501 9.64404 22.0713C9.67121 22.2925 9.77151 22.4983 9.929 22.656L11.343 24.071C11.5006 24.2289 11.7066 24.3295 11.928 24.3569C12.1494 24.3842 12.3737 24.3368 12.565 24.222L14.038 23.338C14.226 23.425 14.417 23.504 14.613 23.575L15.03 25.242C15.084 25.4584 15.2088 25.6506 15.3845 25.788C15.5603 25.9253 15.7769 25.9999 16 26H18C18.2231 25.9999 18.4397 25.9253 18.6155 25.788C18.7912 25.6506 18.916 25.4584 18.97 25.242L19.387 23.575C19.587 23.504 19.774 23.425 19.962 23.338L21.435 24.222C21.6263 24.3368 21.8506 24.3842 22.072 24.3569C22.2934 24.3295 22.4994 24.2289 22.657 24.071L24.071 22.656C24.2285 22.4983 24.3288 22.2925 24.356 22.0713C24.3831 21.8501 24.3356 21.6261 24.221 21.435L23.337 19.962C23.425 19.774 23.504 19.582 23.575 19.388L25.243 18.97C25.4592 18.9158 25.6512 18.791 25.7883 18.6152C25.9255 18.4395 26 18.2229 26 18V16C26 15.7771 25.9255 15.5605 25.7883 15.3848C25.6512 15.209 25.4592 15.0842 25.243 15.03V15.03ZM24 17.22L22.547 17.583C22.374 17.6263 22.2158 17.7151 22.0887 17.8401C21.9616 17.9651 21.8702 18.1218 21.824 18.294C21.7103 18.7141 21.5422 19.1175 21.324 19.494C21.2344 19.6486 21.1879 19.8244 21.1894 20.0031C21.1908 20.1818 21.24 20.3568 21.332 20.51L22.1 21.8L21.79 22.109L20.508 21.34C20.3546 21.2486 20.1796 21.1997 20.0011 21.1983C19.8225 21.1969 19.6468 21.243 19.492 21.332C19.1156 21.5504 18.7121 21.7185 18.292 21.832C18.1199 21.8784 17.9633 21.97 17.8384 22.0973C17.7136 22.2246 17.6251 22.383 17.582 22.556L17.219 24H16.781L16.417 22.548C16.3739 22.375 16.2854 22.2166 16.1606 22.0893C16.0357 21.962 15.8791 21.8704 15.707 21.824C15.2869 21.7104 14.8834 21.5424 14.507 21.324C14.3524 21.2344 14.1766 21.1879 13.9979 21.1894C13.8192 21.1908 13.6442 21.24 13.491 21.332L12.209 22.101L11.9 21.8L12.669 20.517C12.761 20.3638 12.8102 20.1888 12.8116 20.0101C12.8131 19.8314 12.7666 19.6556 12.677 19.501C12.4588 19.1245 12.2907 18.7211 12.177 18.301C12.1308 18.1288 12.0394 17.9721 11.9123 17.8471C11.7852 17.7221 11.627 17.6333 11.454 17.59L10 17.22V16.78L11.453 16.417C11.626 16.3737 11.7842 16.2849 11.9113 16.1599C12.0384 16.0349 12.1298 15.8782 12.176 15.706C12.2897 15.2859 12.4578 14.8825 12.676 14.506C12.7656 14.3514 12.8121 14.1756 12.8106 13.9969C12.8092 13.8182 12.76 13.6432 12.668 13.49L11.9 12.205L12.209 11.895L13.492 12.665C13.6452 12.757 13.8202 12.8062 13.9989 12.8076C14.1776 12.8091 14.3534 12.7626 14.508 12.673C14.8845 12.4546 15.2879 12.2866 15.708 12.173C15.8801 12.1266 16.0367 12.035 16.1616 11.9077C16.2864 11.7804 16.3749 11.622 16.418 11.449L16.781 10H17.219L17.583 11.452C17.6261 11.625 17.7146 11.7834 17.8394 11.9107C17.9643 12.038 18.1209 12.1296 18.293 12.176C18.7131 12.2895 19.1166 12.4576 19.493 12.676C19.6476 12.7656 19.8234 12.8121 20.0021 12.8106C20.1808 12.8092 20.3558 12.76 20.509 12.668L21.8 11.9L22.109 12.21L21.34 13.493C21.248 13.6462 21.1988 13.8212 21.1974 13.9999C21.1959 14.1786 21.2424 14.3544 21.332 14.509C21.5502 14.8855 21.7183 15.2889 21.832 15.709C21.8782 15.8812 21.9696 16.0379 22.0967 16.1629C22.2238 16.2879 22.382 16.3767 22.555 16.42L24 16.78V17.22Z" fill="black"/>
<path d="M17 13C16.2089 13 15.4355 13.2346 14.7777 13.6741C14.1199 14.1136 13.6072 14.7384 13.3045 15.4693C13.0017 16.2002 12.9225 17.0044 13.0769 17.7804C13.2312 18.5563 13.6122 19.269 14.1716 19.8284C14.731 20.3878 15.4437 20.7688 16.2196 20.9231C16.9956 21.0775 17.7998 20.9983 18.5307 20.6955C19.2616 20.3928 19.8864 19.8801 20.3259 19.2223C20.7654 18.5645 21 17.7911 21 17C21 15.9391 20.5786 14.9217 19.8284 14.1716C19.0783 13.4214 18.0609 13 17 13V13ZM17 19C16.6044 19 16.2178 18.8827 15.8889 18.6629C15.56 18.4432 15.3036 18.1308 15.1522 17.7654C15.0009 17.3999 14.9613 16.9978 15.0384 16.6098C15.1156 16.2219 15.3061 15.8655 15.5858 15.5858C15.8655 15.3061 16.2219 15.1156 16.6098 15.0384C16.9978 14.9613 17.3999 15.0009 17.7654 15.1522C18.1308 15.3036 18.4432 15.56 18.6629 15.8889C18.8827 16.2178 19 16.6044 19 17C19 17.5304 18.7893 18.0391 18.4142 18.4142C18.0391 18.7893 17.5304 19 17 19Z" fill="black"/>
<path d="M52 42C51.2963 42.0073 50.5955 42.0912 49.91 42.25L48.4 39.63C48.9935 39.3206 49.4655 38.8204 49.74 38.21C50.4983 38.9832 51.4522 39.5362 52.5 39.81C52.6637 39.8496 52.8315 39.8698 53 39.87C53.4426 39.8731 53.8731 39.7249 54.22 39.45C54.4637 39.2652 54.6611 39.0263 54.7965 38.752C54.9319 38.4778 55.0015 38.1758 55 37.87V37C55.7956 37 56.5587 36.6839 57.1213 36.1213C57.6839 35.5587 58 34.7956 58 34C58 33.2043 57.6839 32.4413 57.1213 31.8787C56.5587 31.316 55.7956 31 55 31V30.13C54.9986 29.8251 54.9278 29.5245 54.7931 29.251C54.6583 28.9775 54.4631 28.7383 54.2223 28.5514C53.9814 28.3644 53.7012 28.2348 53.4028 28.1722C53.1044 28.1096 52.7957 28.1156 52.5 28.19C51.4522 28.4638 50.4983 29.0167 49.74 29.79C49.5057 29.2583 49.122 28.8062 48.6356 28.4884C48.1492 28.1707 47.581 28.001 47 28H46V26C45.9984 25.47 45.7872 24.9622 45.4125 24.5875C45.0377 24.2128 44.5299 24.0016 44 24H42.4C42.13 24.0031 41.8634 24.0606 41.616 24.1688C41.3687 24.277 41.1456 24.4338 40.96 24.63C40.8875 23.7871 40.5476 22.9893 39.9898 22.3532C39.432 21.7171 38.6856 21.2759 37.8594 21.0939C37.0331 20.9119 36.1704 20.9987 35.397 21.3416C34.6235 21.6845 33.9799 22.2655 33.56 23H31C30.9092 23.0047 30.8188 23.014 30.729 23.028C32.269 19.556 32.4432 15.631 31.2167 12.0362C29.9903 8.44151 27.4535 5.44144 24.1125 3.63475C20.7715 1.82806 16.8721 1.34763 13.1925 2.28934C9.5129 3.23106 6.32372 5.52565 4.26142 8.71519C2.19912 11.9047 1.41537 15.7546 2.0666 19.4966C2.71782 23.2385 4.75612 26.5973 7.77472 28.9026C10.7933 31.2079 14.5702 32.2902 18.3516 31.9334C22.133 31.5767 25.6408 29.8071 28.175 26.978C28.3165 27.4049 28.5562 27.7927 28.875 28.11C29.1521 28.3923 29.4828 28.6165 29.8477 28.7693C30.2126 28.9222 30.6044 29.0006 31 29H34.28C34.1002 29.3028 34.0036 29.6478 34 30V32H29C27.8725 32.0015 26.762 32.2751 25.7627 32.7973C24.7635 33.3196 23.905 34.0752 23.26 35H18V37H22.29C22.1007 37.6499 22.003 38.3231 22 39H14V37H16V35H14C13.9984 34.47 13.7872 33.9622 13.4125 33.5875C13.0377 33.2128 12.5299 33.0016 12 33H4.86999C4.50739 32.9988 4.15131 33.0963 3.83983 33.2819C3.52835 33.4675 3.27319 33.7343 3.10165 34.0538C2.93011 34.3732 2.84864 34.7333 2.86597 35.0955C2.88329 35.4577 2.99874 35.8083 3.19999 36.11L5.86999 40.11C6.05227 40.3856 6.30048 40.6114 6.59211 40.7668C6.88373 40.9222 7.20954 41.0024 7.53999 41H17.84L18.34 41.42L16.61 43.15C14.4792 42.033 12.0187 41.7164 9.67453 42.2576C7.33038 42.7989 5.25774 44.1622 3.83237 46.1003C2.40699 48.0384 1.72323 50.4231 1.90503 52.8221C2.08684 55.221 3.12218 57.4754 4.82335 59.1766C6.52453 60.8778 8.77895 61.9131 11.1779 62.0949C13.5768 62.2767 15.9615 61.593 17.8997 60.1676C19.8378 58.7422 21.201 56.6696 21.7423 54.3254C22.2836 51.9813 21.967 49.5208 20.85 47.39L22.74 45.51L24.85 49.03C25.0293 49.3257 25.2817 49.5703 25.5829 49.7402C25.8842 49.9101 26.2241 49.9996 26.57 50H28V50.46C27.9976 50.7904 28.0778 51.1162 28.2332 51.4079C28.3886 51.6995 28.6144 51.9477 28.89 52.13L31.19 53.66C31.5186 53.8798 31.9046 53.998 32.3 54H38C38.5299 53.9984 39.0377 53.7872 39.4125 53.4124C39.7872 53.0377 39.9984 52.5299 40 52V48.48L44.44 44.88L44.64 45.24C43.0898 46.9307 42.1684 49.1033 42.0305 51.393C41.8925 53.6827 42.5464 55.9501 43.8824 57.8148C45.2184 59.6794 47.1552 61.0277 49.3677 61.6333C51.5801 62.239 53.9336 62.0651 56.033 61.1409C58.1324 60.2167 59.85 58.5984 60.8975 56.5577C61.945 54.517 62.2586 52.178 61.7856 49.9335C61.3127 47.6889 60.082 45.6753 58.3002 44.2307C56.5184 42.7862 54.2938 41.9985 52 42V42ZM55 33C55.2652 33 55.5196 33.1053 55.7071 33.2929C55.8946 33.4804 56 33.7348 56 34C56 34.2652 55.8946 34.5195 55.7071 34.7071C55.5196 34.8946 55.2652 35 55 35V33ZM53 30.13V37.87C52.1419 37.6484 51.3816 37.1481 50.8386 36.4477C50.2956 35.7472 50.0006 34.8862 50 34C49.9975 33.1129 50.2914 32.2504 50.8348 31.5493C51.3783 30.8483 52.1403 30.3487 53 30.13ZM17 30C14.4288 30 11.9154 29.2375 9.77757 27.8091C7.63974 26.3806 5.97349 24.3503 4.98955 21.9749C4.00561 19.5994 3.74817 16.9855 4.24978 14.4638C4.75139 11.942 5.98952 9.62567 7.8076 7.80758C9.62568 5.9895 11.9421 4.75137 14.4638 4.24976C16.9856 3.74815 19.5994 4.0056 21.9749 4.98954C24.3503 5.97348 26.3806 7.63972 27.8091 9.77756C29.2375 11.9154 30 14.4288 30 17C30 18.7072 29.6637 20.3976 29.0104 21.9749C28.3571 23.5521 27.3995 24.9852 26.1924 26.1924C24.9852 27.3995 23.5521 28.3571 21.9749 29.0104C20.3976 29.6637 18.7072 30 17 30V30ZM31 27C30.8665 27.0011 30.7343 26.9741 30.6119 26.9207C30.4896 26.8673 30.3799 26.7887 30.29 26.69C30.1964 26.6014 30.1223 26.4943 30.0723 26.3755C30.0224 26.2567 29.9978 26.1288 30 26C30 25.7348 30.1053 25.4804 30.2929 25.2929C30.4804 25.1053 30.7348 25 31 25H33C33.0027 25.705 33.1963 26.3961 33.56 27H31ZM12 39H7.53999L4.86999 35H12V39ZM42.4 26H44V28H41.68L41.36 27.44L42.4 26ZM37 23C37.3956 23 37.7822 23.1173 38.1111 23.337C38.44 23.5568 38.6964 23.8692 38.8477 24.2346C38.9991 24.6001 39.0387 25.0022 38.9616 25.3902C38.8844 25.7781 38.6939 26.1345 38.4142 26.4142C38.1345 26.6939 37.7781 26.8844 37.3902 26.9615C37.0022 27.0387 36.6001 26.9991 36.2346 26.8477C35.8692 26.6964 35.5568 26.44 35.337 26.1111C35.1173 25.7822 35 25.3955 35 25C35.0016 24.47 35.2128 23.9622 35.5875 23.5875C35.9623 23.2128 36.47 23.0016 37 23V23ZM36 32.18V30.28L40.46 38H38V35C37.9968 34.3814 37.8031 33.7788 37.4452 33.2742C37.0874 32.7696 36.5827 32.3875 36 32.18ZM29 34H35C35.2652 34 35.5196 34.1053 35.7071 34.2929C35.8946 34.4804 36 34.7348 36 35V40H25C24.7348 40 24.4804 39.8946 24.2929 39.7071C24.1053 39.5195 24 39.2652 24 39C24 37.6739 24.5268 36.4021 25.4645 35.4644C26.4021 34.5268 27.6739 34 29 34ZM12 60C10.8126 60.0037 9.63935 59.7431 8.56523 59.2371C7.49111 58.7311 6.5431 57.9923 5.78997 57.0743C5.03685 56.1564 4.49749 55.0823 4.21104 53.93C3.92459 52.7778 3.89821 51.5762 4.13384 50.4124C4.36947 49.2487 4.86118 48.152 5.57331 47.2019C6.28544 46.2518 7.20013 45.4722 8.25101 44.9195C9.3019 44.3668 10.4626 44.055 11.649 44.0066C12.8354 43.9583 14.0176 44.1746 15.11 44.64L13 46.76V46H11V48.14C10.6424 48.2373 10.2993 48.3819 9.97999 48.57L8.45999 47.05L7.04999 48.46L8.56999 49.98C8.38192 50.2993 8.23731 50.6424 8.13999 51H5.99999V53H8.13999C8.23731 53.3576 8.38192 53.7006 8.56999 54.02L7.04999 55.54L8.45999 56.95L9.97999 55.43C10.2993 55.618 10.6424 55.7626 11 55.86V58H13V55.86C13.3576 55.7626 13.7006 55.618 14.02 55.43L15.54 56.95L16.95 55.54L15.43 54.02C15.6181 53.7006 15.7627 53.3576 15.86 53H18V51H17.24L19.36 48.89C19.8784 50.1051 20.087 51.4299 19.967 52.7454C19.8471 54.061 19.4024 55.3263 18.6728 56.4276C17.9432 57.5289 16.9516 58.4318 15.7869 59.0553C14.6223 59.6789 13.321 60.0034 12 60V60ZM14 52C14 52.3955 13.8827 52.7822 13.6629 53.1111C13.4432 53.44 13.1308 53.6964 12.7654 53.8477C12.3999 53.9991 11.9978 54.0387 11.6098 53.9615C11.2218 53.8844 10.8655 53.6939 10.5858 53.4142C10.3061 53.1345 10.1156 52.7781 10.0384 52.3902C9.96125 52.0022 10.0009 51.6001 10.1522 51.2346C10.3036 50.8692 10.5599 50.5568 10.8888 50.337C11.2177 50.1173 11.6044 50 12 50C12.5299 50.0016 13.0377 50.2128 13.4125 50.5875C13.7872 50.9622 13.9984 51.47 14 52ZM15.43 49.98C15.0876 49.3976 14.6023 48.9123 14.02 48.57L19.88 42.7L21.43 43.99L15.43 49.98ZM28.86 45.88C28.5946 46.0633 28.3777 46.3084 28.2279 46.594C28.0782 46.8797 27.9999 47.1974 28 47.52V48H26.57L23.77 43.34L20.96 41H22.78C23.059 41.3133 23.4009 41.5642 23.7834 41.7365C24.1659 41.9088 24.5805 41.9986 25 42H34V44H32.21C31.8063 43.9976 31.4117 44.1198 31.08 44.35L28.86 45.88ZM38 52H32.3L30 50.46V47.52L32.21 46H38V52ZM39.99 45.91C39.9669 45.397 39.7474 44.9126 39.3769 44.557C39.0065 44.2015 38.5135 44.002 38 44H36V42C36.5299 41.9984 37.0377 41.7872 37.4125 41.4124C37.7872 41.0377 37.9984 40.5299 38 40H41.62L43.43 43.13L39.99 45.91ZM37.54 28.95C38.2368 28.8527 38.8956 28.5733 39.45 28.14L42.55 33.5L44.29 32.5L42.84 30H47C47.2652 30 47.5196 30.1053 47.7071 30.2929C47.8946 30.4804 48 30.7348 48 31V37C48.0005 37.1925 47.9449 37.3811 47.8402 37.5426C47.7354 37.7042 47.586 37.8318 47.41 37.91L45.47 34.56L43.74 35.56L51.01 48.14C50.333 48.3105 49.7124 48.6553 49.21 49.14L37.54 28.95ZM52 50C52.3956 50 52.7822 50.1173 53.1111 50.337C53.44 50.5568 53.6964 50.8692 53.8477 51.2346C53.9991 51.6001 54.0387 52.0022 53.9616 52.3902C53.8844 52.7781 53.6939 53.1345 53.4142 53.4142C53.1345 53.6939 52.7781 53.8844 52.3902 53.9615C52.0022 54.0387 51.6001 53.9991 51.2346 53.8477C50.8692 53.6964 50.5568 53.44 50.337 53.1111C50.1173 52.7822 50 52.3955 50 52C50.0016 51.47 50.2128 50.9622 50.5875 50.5875C50.9623 50.2128 51.47 50.0016 52 50V50ZM52 60C50.5003 60.0031 49.03 59.5837 47.7576 58.7899C46.4852 57.996 45.4622 56.8598 44.8057 55.5113C44.1492 54.1629 43.8859 52.6568 44.0458 51.1657C44.2057 49.6745 44.7825 48.2585 45.71 47.08L47.97 51H46V53H48.14C48.2373 53.3576 48.3819 53.7006 48.57 54.02L47.05 55.54L48.46 56.95L49.98 55.43C50.2993 55.618 50.6424 55.7626 51 55.86V58H53V55.86C53.3576 55.7626 53.7006 55.618 54.02 55.43L55.54 56.95L56.95 55.54L55.43 54.02C55.6181 53.7006 55.7627 53.3576 55.86 53H58V51H55.86C55.7627 50.6424 55.6181 50.2993 55.43 49.98L56.95 48.46L55.54 47.05L54.02 48.57C53.8203 48.4468 53.6094 48.343 53.39 48.26L50.97 44.07C51.3116 44.0264 51.6556 44.003 52 44C54.1217 44 56.1566 44.8428 57.6568 46.3431C59.1571 47.8434 60 49.8782 60 52C60 54.1217 59.1571 56.1565 57.6568 57.6568C56.1566 59.1571 54.1217 60 52 60Z" fill="black"/>
<path d="M36 48H32V50H36V48Z" fill="black"/>
</svg>
