<?xml version="1.0" encoding="UTF-8" standalone="no"?> <svg xmlns="http://www.w3.org/2000/svg" viewBox="0 0 64 64"><title>transport-motorbike-motorcycle-bike-bikes-motor-sports</title><g id="Outline"><path d="M62,40a10,10,0,0,0-12.956-9.553L48.009,28H51a1,1,0,0,0,.707-.293,3.832,3.832,0,0,0,0-5.414A1,1,0,0,0,51,22H46a.97.97,0,0,0-.473.135L41.921,13.61A1,1,0,0,0,41,13H34v2h6.337l1.532,3.62a6.056,6.056,0,0,0-2.968-.336,40.969,40.969,0,0,0-7.01,1.7q-.813.252-1.712.525L24.863,22H11.043a6.836,6.836,0,0,0-2.544.489l-1.153.461a2.208,2.208,0,0,0,0,4.1l1.152.461A6.836,6.836,0,0,0,11.043,28H19.35l1.279,2.877-1.919,1.73A9.988,9.988,0,1,0,7.67,49H2v2H62V49H56.33A10,10,0,0,0,62,40ZM47,24h3.531a1.836,1.836,0,0,1,0,2H47.163L47,25.615Zm-2.009,2h-.174c.037-.05.077-.1.112-.147ZM30.736,22.432c.624-.188,1.2-.366,1.746-.536a38.761,38.761,0,0,1,6.7-1.631,4.1,4.1,0,0,1,2.846.645,3.866,3.866,0,0,1,1.514,1.983,2.082,2.082,0,0,1-.241,1.8A2.927,2.927,0,0,1,40.862,26H26V23.759ZM9.242,25.653,8.09,25.192a.206.206,0,0,1,0-.384l1.152-.461a4.809,4.809,0,0,1,1.8-.347H24v2H11.043A4.809,4.809,0,0,1,9.242,25.653ZM25,28H45.837l.074.173L46.26,29H43a1,1,0,0,0-.949.684L37.279,44H28.65L21.539,28ZM16.688,38.318a4.925,4.925,0,0,0-.4-.84l2.268-2.044a7.963,7.963,0,0,1,1.147,2.45Zm-5.594,2.106A1,1,0,0,0,12,41a.978.978,0,0,0,.142-.01l2.8-.4A3,3,0,1,1,12,37a2.961,2.961,0,0,1,1.42.374l-2.089,1.883A1,1,0,0,0,11.094,40.424Zm8.956-6.332L21.483,32.8,23.5,37.34l-1.8.259A9.948,9.948,0,0,0,20.05,34.092ZM4,40a7.989,7.989,0,0,1,13.219-6.05l-2.263,2.039A4.95,4.95,0,0,0,12,35a5,5,0,1,0,4.97,5.3l3.023-.433c0,.046.007.09.007.136A8,8,0,0,1,4,40Zm12.33,9A10,10,0,0,0,22,40c0-.142-.015-.28-.021-.421l2.367-.34,2.74,6.167A1,1,0,0,0,28,46H38a1,1,0,0,0,.949-.684L43.721,31h3.386l.1.229A9.985,9.985,0,0,0,47.67,49ZM52,48a7.993,7.993,0,0,1-4.01-14.912l1.182,2.8a4.994,4.994,0,1,0,1.841-.783l-1.182-2.793A8,8,0,1,1,52,48Zm-.921-7.61,1.842-.78-1.1-2.592c.059,0,.116-.018.176-.018a3.027,3.027,0,1,1-2.018.8Z"/><path d="M30.427,39.763a3.987,3.987,0,1,0,6.554-4.4L39.8,31.6A1,1,0,0,0,39,30H30a1,1,0,0,0-.895,1.447l.627,1.254L28.22,33.835a2.707,2.707,0,0,0,0,4.33L30.4,39.8ZM34,40a2,2,0,1,1,2-2A2,2,0,0,1,34,40Zm3-8-1.5,2H32.618l-1-2Zm-7.862,4a.7.7,0,0,1,.282-.565l1.221-.916.4.808a3.974,3.974,0,0,0-.93,1.76l-.695-.522A.7.7,0,0,1,29.138,36Z"/></g></svg>