<?xml version="1.0" encoding="UTF-8" standalone="no"?> <svg id="flat" xmlns="http://www.w3.org/2000/svg" viewBox="0 0 64 64"><path d="M12.994,54.022a9,9,0,1,1,9-9A9.01,9.01,0,0,1,12.994,54.022Zm0-14a5,5,0,1,0,5,5A5.006,5.006,0,0,0,12.994,40.022Z" style="fill:#394d5c"/><path d="M53,54.083a9,9,0,1,1,9-9A9.01,9.01,0,0,1,53,54.083Zm0-14a5,5,0,1,0,5,5A5.006,5.006,0,0,0,53,40.083Z" style="fill:#394d5c"/><circle cx="13" cy="45" r="3" style="fill:#7c8c9a"/><polygon points="41 33 15.4 33 16 30 41 30 45.793 28.184 47 31 41 33" style="fill:#5a6470"/><path d="M41,30H28V26l6.917-3.023.423-.077a4,4,0,0,1,4.565,2.848Z" style="fill:#ea4747"/><path d="M19,33H34a0,0,0,0,1,0,0v4a0,0,0,0,1,0,0H19a1,1,0,0,1-1-1V34A1,1,0,0,1,19,33Z" style="fill:#7c8c9a"/><path d="M4,39H2V37H3.4c.9-1.475,3.868-5,11.6-5v2C6.772,34,4.946,38.328,4.929,38.372A1,1,0,0,1,4,39Z" style="fill:#394d5c"/><path d="M44.963,36.269l-1.926-.538A5.185,5.185,0,0,1,48,32h8v2H48A3.22,3.22,0,0,0,44.963,36.269Z" style="fill:#ea4747"/><path d="M14.3,43.553,17.156,29H7v2h7.78L12.02,44.8A1,1,0,0,0,12.8,45.98.948.948,0,0,0,13,46a.983.983,0,0,0,.291-.051l0,.007,13-4V39.864Z" style="fill:#5a6470"/><path d="M53,48a3,3,0,1,1,3-3A3,3,0,0,1,53,48Z" style="fill:#7c8c9a"/><path d="M46.373,27H49V25H45.516l-.269-.629,2.308-1.539a1,1,0,0,0,.364-1.226l-3-7a1,1,0,0,0-.472-.5l-6-3-.894,1.79,5.672,2.835,2.528,5.9-2.308,1.539a1,1,0,0,0-.364,1.226l9,21,1.838-.788Z" style="fill:#5a6470"/><path d="M26,37H36a0,0,0,0,1,0,0v7a1,1,0,0,1-1,1H30a4,4,0,0,1-4-4V37A0,0,0,0,1,26,37Z" style="fill:#5a6470"/><path d="M36,37h4a2,2,0,0,1,2,2v3a0,0,0,0,1,0,0H36a0,0,0,0,1,0,0V37A0,0,0,0,1,36,37Z" style="fill:#394d5c"/><path d="M28,26,17,30H15l-4-4-.572-2.108a2,2,0,0,1,2.289-1.575l4.1.683,9.01-.8A2,2,0,0,1,28,24.187Z" style="fill:#394d5c"/><path d="M8,31H3a1,1,0,0,1-1-1V26a1,1,0,0,1,1-1H7a1,1,0,0,1,.97.757l1,4A1,1,0,0,1,8,31Z" style="fill:#da3e46"/><path d="M40,45H38a2,2,0,0,1-2-2V36H34V34h2a2,2,0,0,1,2,2v7h2V42h2v1A2,2,0,0,1,40,45Z" style="fill:#a8bccb"/><path d="M50,23h2a0,0,0,0,1,0,0v6a0,0,0,0,1,0,0H50a2,2,0,0,1-2-2V25A2,2,0,0,1,50,23Z" style="fill:#394d5c"/></svg>
