<?xml version="1.0" encoding="UTF-8" standalone="no"?> <svg id="filledoutline" xmlns="http://www.w3.org/2000/svg" viewBox="0 0 64 64"><path d="M53.992,48a6.972,6.972,0,1,1,6.973-6.972A6.98,6.98,0,0,1,53.992,48Z" style="fill:#394d5c"/><path d="M16,47a7,7,0,1,1,7-7A7.008,7.008,0,0,1,16,47Z" style="fill:#394d5c"/><polygon points="39.875 42 16.5 42 16.5 34.375 33.5 32.313 39.875 42" style="fill:#5a6470"/><path d="M54,45a4,4,0,1,1,4-4A4,4,0,0,1,54,45Z" style="fill:#7c8c9a"/><circle cx="54" cy="41" r="2.357" style="fill:#a8bccb"/><path d="M38,22H35.5A1.5,1.5,0,0,0,34,23.5h0A1.5,1.5,0,0,0,35.5,25H38v4h3V23.5A1.5,1.5,0,0,0,39.5,22Z" style="fill:#394d5c"/><polygon points="3 43 6 43 18 43 20.5 30.5 5 33 3 43" style="fill:#e97424"/><polygon points="25 32 16.854 31.313 16.854 36 25 36 33.246 32.466 32 31 25 32" style="fill:#e97424"/><polygon points="54 28 54 32 52 32 48 38 37 38 32 33 32 31 44 25 44 23 49 23 54 28" style="fill:#f4ab37"/><path d="M37,38H48a0,0,0,0,1,0,0v4a3,3,0,0,1-3,3H37a0,0,0,0,1,0,0V38A0,0,0,0,1,37,38Z" style="fill:#f4ab37"/><polygon points="34 35 27 39 27 45 37 45 37 38 34 35" style="fill:#e97424"/><polygon points="37 38 41 31 45 29 52 32 48 38 37 38" style="fill:#e97424"/><polygon points="49 23 44 23 43 16 45 16 49 23" style="fill:#a8bccb"/><polygon points="54 28 54 29.88 49 27.75 49 25 51 25 54 28" style="fill:#e97424"/><polygon points="18 43 6 43 13 38 19 38 18 43" style="fill:#f4ab37"/><polygon points="18.6 40 27 40 27 43 15 43 18.6 40" style="fill:#7c8c9a"/><polygon points="13 33 3 33 3 27 6 24 13 24 13 33" style="fill:#f4ab37"/><path d="M21.041,28.384,17,30l-1.923-.385.773-3.866a1,1,0,0,0-.533-1.091L14.26,24.13a1,1,0,0,1-.41-.38l-1.731-2.886a1,1,0,0,0-1.807.2L10,22l2,7,1,4h7l5-1V30.442a2,2,0,0,0-1.368-1.9l-.652-.217A2.818,2.818,0,0,0,21.041,28.384Z" style="fill:#394d5c"/><path d="M54,33a1,1,0,0,0,1-1V28a1,1,0,0,0-.293-.707l-4.905-4.9L45.868,15.5A1,1,0,0,0,45,15H43a1,1,0,0,0-.99,1.142L43,23.073v1.309l-1,.5V24a3,3,0,0,0-3-3H35a2,2,0,0,0-2,2v1a2,2,0,0,0,2,2h2v1.382l-5.3,2.651-5.7.815v-.407A3,3,0,0,0,23.949,27.6l-.653-.218a3.819,3.819,0,0,0-2.626.077L16.9,28.961l-.65-.13.577-2.887a2.007,2.007,0,0,0-1.067-2.18l-1.056-.529-1.731-2.886a2,2,0,0,0-3.613.4l-.312.938a.994.994,0,0,0-.017.579l.2.737H6a1,1,0,0,0-.707.293l-3,3A1,1,0,0,0,2,27v6a1,1,0,0,0,1,1h.78L2.02,42.8A1,1,0,0,0,3,44H9.1A7.956,7.956,0,0,0,22.9,44H26v1a1,1,0,0,0,1,1H45a3.978,3.978,0,0,0,2.262-.706A8,8,0,1,0,54,33m-6.535,4H38.723l3-5.241L45.032,30.1,50.5,32.445ZM50,26h.586l2.332,2.332L50,27.089Zm-5.58-9,2.857,5H44.868l-.715-5ZM38,24H35V23h4a1,1,0,0,1,1,1v1.882l-1,.5V25A1,1,0,0,0,38,24Zm-5,7.618L44.447,25.9A1,1,0,0,0,45,25V24h3.586l.069.069A.994.994,0,0,0,48,25v2.75a1,1,0,0,0,.608.92L53,30.541V31h-.8l-6.81-2.919a1,1,0,0,0-.841.024l-4,2a.994.994,0,0,0-.421.4l-3.351,5.863L33,32.586ZM26,39H19.82l.4-2H25a.985.985,0,0,0,.394-.081l6.377-2.733.6.595L26.5,38.132A1,1,0,0,0,26,39ZM14.667,42H9.12l4.2-3h4.46l-.156.783Zm6.183-8.15L31,32.153v.188L24.8,35H20.62ZM11.262,21.379l1.73,2.885a2,2,0,0,0,.821.76l1.057.529L14.1,29.419a1,1,0,0,0,.784,1.177l1.923.384a1,1,0,0,0,.567-.051l4.042-1.616a1.828,1.828,0,0,1,1.25-.039l.653.218a1,1,0,0,1,.684.949v.739L19.9,32H13.764l-2.719-9.971ZM4,27.414,6.414,25H9.782l1.909,7H4ZM5.819,34H18.78l-.6,3H13a.994.994,0,0,0-.581.187L5.68,42H4.22ZM16,46a5.936,5.936,0,0,1-4.477-2h8.954A5.936,5.936,0,0,1,16,46Zm2-4,1.333-1H26v1Zm10-2.42,5.833-3.333L36,38.414V44H28ZM45,44H38V39h9v3A2,2,0,0,1,45,44Zm9,3a5.939,5.939,0,0,1-5.365-3.352A3.954,3.954,0,0,0,49,42V38.3l1.243-1.865.971,1.7a4.211,4.211,0,1,0,1.741-.982l-1.019-1.784A5.908,5.908,0,0,1,54,35a6,6,0,0,1,0,12Zm-1.722-7,.855,1.5,1.734-.994L54.009,39A2,2,0,1,1,52,41,1.974,1.974,0,0,1,52.278,40Z"/><rect x="40" y="40" width="5" height="2"/></svg>
