<?xml version="1.0" encoding="UTF-8" standalone="no"?> <svg id="Line" xmlns="http://www.w3.org/2000/svg" viewBox="0 0 64 64"><path d="M53,32a8.948,8.948,0,0,0-5.611,1.975L35.708,22.294l0,0-4.54-4.54a4.484,4.484,0,0,0-6.332,0l-2.541,2.541,1.414,1.414,2.541-2.541a2.482,2.482,0,0,1,3.5,0l3.055,3.055a11.011,11.011,0,0,0-8.784,10.316A5.781,5.781,0,0,1,20.172,34H17.9A5.009,5.009,0,0,0,13,30H7a3,3,0,0,0-1.649,5.5A7.989,7.989,0,1,0,16.906,46H30a1.418,1.418,0,0,0,.706-.292L43.5,32.914l2.475,2.475A8.992,8.992,0,1,0,53,32ZM34,24.055v2.008A5.943,5.943,0,0,1,28.063,32H26.056A9.018,9.018,0,0,1,34,24.055ZM33.216,38.79a3.126,3.126,0,0,0-4.411,0L27.587,40h-.405A5.87,5.87,0,0,1,33,33.089a5.883,5.883,0,0,1,4.893,2.6l-4.038,4.038A3.1,3.1,0,0,0,33.216,38.79ZM22.618,40l-2.01-4.021A7.749,7.749,0,0,0,25.384,34h1.492a7.871,7.871,0,0,0-1.787,5,7.953,7.953,0,0,0,.073,1ZM17,36h1.382l2,4h-2.64a7.994,7.994,0,0,0-2.47-4ZM7,34a1,1,0,0,1,0-2h6a3.006,3.006,0,0,1,2.829,2Zm3,14a6,6,0,1,1,5.65-8H8a1,1,0,0,0-.854,1.521l2.445,4a1,1,0,0,0,.853.479h4.023A6.031,6.031,0,0,1,10,48Zm7-4H11.005L9.783,42H28a1,1,0,0,0,.706-.292l1.511-1.5a1.121,1.121,0,0,1,1.913.8,1.109,1.109,0,0,1-.314.771L29.586,44Zm22.323-9.737a7.859,7.859,0,0,0-5.194-3.092A7.9,7.9,0,0,0,36,26.063v-.649L42.086,31.5ZM53,48a6.986,6.986,0,0,1-5.6-11.184l2.165,2.165A3.947,3.947,0,0,0,49,41a4,4,0,1,0,4-4,3.947,3.947,0,0,0-2.019.567L48.816,35.4A7,7,0,1,1,53,48Zm0-9a2,2,0,1,1-2,2A2,2,0,0,1,53,39Z"/><path d="M44,26h3a1,1,0,0,0,1-1V19a1,1,0,0,0-1-1H44a4,4,0,0,0,0,8Zm0-6h2v4H44a2,2,0,0,1,0-4Z"/><rect x="54" y="25" width="2" height="2"/><rect x="52" y="23" width="2" height="2"/><rect x="50" y="21" width="2" height="2"/><rect x="52" y="19" width="2" height="2"/><rect x="54" y="21" width="2" height="2"/><rect x="54" y="17" width="2" height="2"/><rect x="56" y="19" width="2" height="2"/><rect x="56" y="23" width="2" height="2"/><rect x="56" y="27" width="2" height="2"/><rect x="56" y="15" width="2" height="2"/><rect x="58" y="17" width="2" height="2"/><rect x="58" y="21" width="2" height="2"/><rect x="58" y="25" width="2" height="2"/></svg>